<?xml version="1.0" encoding="UTF-8" standalone="no"?>
<!-- Created with Inkscape (http://www.inkscape.org/) -->

<svg
   width="135.46666mm"
   height="135.46666mm"
   viewBox="0 0 135.46666 135.46666"
   version="1.1"
   id="svg1"
   xml:space="preserve"
   inkscape:version="1.4 (86a8ad7, 2024-10-11)"
   sodipodi:docname="locked.svg"
   xmlns:inkscape="http://www.inkscape.org/namespaces/inkscape"
   xmlns:sodipodi="http://sodipodi.sourceforge.net/DTD/sodipodi-0.dtd"
   xmlns="http://www.w3.org/2000/svg"
   xmlns:svg="http://www.w3.org/2000/svg"><sodipodi:namedview
     id="namedview1"
     pagecolor="#ffffff"
     bordercolor="#666666"
     borderopacity="1.0"
     inkscape:showpageshadow="2"
     inkscape:pageopacity="0.0"
     inkscape:pagecheckerboard="0"
     inkscape:deskcolor="#d1d1d1"
     inkscape:document-units="mm"
     showgrid="false"
     inkscape:zoom="1.4142136"
     inkscape:cx="181.72644"
     inkscape:cy="201.17188"
     inkscape:window-width="1920"
     inkscape:window-height="1017"
     inkscape:window-x="-8"
     inkscape:window-y="-8"
     inkscape:window-maximized="1"
     inkscape:current-layer="layer1" /><defs
     id="defs1"><inkscape:path-effect
       effect="powerstroke"
       message=""
       id="path-effect16"
       is_visible="true"
       lpeversion="1.3"
       scale_width="1"
       interpolator_type="CentripetalCatmullRom"
       interpolator_beta="0.29353234"
       start_linecap_type="zerowidth"
       end_linecap_type="zerowidth"
       offset_points="9.5,0.5 | 25,0.5 | 33,0.5 | 41,0.5 | 51,0.5"
       linejoin_type="round"
       miter_limit="4"
       not_jump="false"
       sort_points="true" /><inkscape:path-effect
       effect="fill_between_many"
       method="bsplinespiro"
       autoreverse="false"
       close="false"
       join="false"
       linkedpaths="#path16,0,1"
       id="path-effect17" /></defs><g
     inkscape:label="Layer 1"
     inkscape:groupmode="layer"
     id="layer1"
     transform="translate(-15.340157,-16.54829)"><path
       style="display:inline;fill:#070707;stroke-width:1.49392"
       d="M 82.387485,152.07403 C 62.974887,152.2022 42.625359,148.86033 26.283633,137.79145 19.014478,132.51624 14.126138,123.64124 15.371556,114.51295 15.610635,91.969262 15.037817,69.420129 15.653508,46.88 18.370945,33.457922 31.954757,26.497152 43.83084,22.572903 c 21.27823,-6.546843 44.194125,-6.940481 66.01611,-3.131311 14.09834,2.837922 29.5894,7.706516 37.99823,20.239172 4.94373,8.980124 2.22758,19.465636 2.86113,29.199256 0.0214,17.707293 0.22251,35.41802 -0.2181,53.12214 -2.88311,13.45542 -16.44239,20.62516 -28.46588,24.53398 -12.76385,4.09784 -26.236942,5.97668 -39.634845,5.53789 z m 0.08742,-17.02939 c 16.395912,0.34973 33.630255,-2.13463 47.612805,-11.21416 5.07866,-3.68845 4.00502,-10.94168 3.23845,-16.01354 -21.36141,10.20933 -45.919124,12.30351 -69.193663,9.20921 -10.66974,-1.46505 -21.275332,-4.21079 -30.870681,-9.19707 -3.630051,7.81119 0.456723,17.54617 9.059633,19.55479 12.447087,5.96428 26.461718,7.90686 40.153456,7.66077 z m 2.762167,-33.81383 c 15.726878,-0.14462 32.099928,-2.836073 45.411068,-11.689027 3.92796,-2.892428 5.68728,-15.298488 0.2855,-14.820612 -20.01828,9.535587 -43.016843,11.040463 -64.781444,8.626435 -11.691371,-1.436944 -23.343125,-4.359316 -33.790843,-9.92083 -0.76448,7.323356 -0.450191,16.754916 8.163339,19.110845 13.699247,7.126938 29.462097,9.022229 44.71238,8.693189 z M 82.121659,67.337607 c 17.073759,0.05781 35.134061,-2.371627 49.421421,-12.411578 5.76984,-6.692851 -3.9118,-12.551192 -9.52212,-14.483131 -18.3567,-7.620274 -38.947517,-8.137171 -58.419762,-5.484656 -9.965875,1.689671 -20.139578,4.618445 -28.40349,10.53583 -7.339034,7.954395 4.813195,13.806996 11.270637,15.829637 11.31682,4.428112 23.560575,5.988995 35.653314,6.013898 z"
       id="path15" /><path
       style="display:inline;fill:#808000;fill-rule:nonzero;stroke:none;stroke-width:0.819567"
       d="m 125.96807,80.141235 c -4.39798,-0.06846 -9.17361,0.530488 -13.09317,-1.927386 -2.58264,-0.982835 -4.29435,-3.256229 -6.14689,-5.188513 -1.25579,-2.2833 -2.53694,-4.648839 -2.78028,-7.294734 -0.46153,-4.443865 -0.0601,-8.932681 -0.2137,-13.395343 -0.31582,-2.684119 0.56954,-5.550926 3.05685,-6.897172 2.2539,-0.138303 2.89599,-1.150582 2.5296,-3.391165 0.2097,-3.822991 -0.34894,-7.87161 1.48453,-11.39863 0.83601,-2.177373 2.23467,-4.030549 4.04379,-5.499336 1.53211,-1.887006 3.8954,-2.815392 6.0806,-3.684445 2.44859,-1.034177 5.11664,-0.622464 7.69228,-0.653105 2.75727,0.368164 5.36688,1.660713 7.62215,3.222693 1.83855,1.853979 4.00358,3.518629 4.88206,6.080094 1.63986,2.821439 1.71534,6.109809 1.67613,9.274239 0.51178,1.695427 -0.7892,5.220165 0.9827,5.574278 2.81173,0.342269 4.78246,3.188248 4.7166,5.9243 -0.19244,5.279446 0.0106,10.597047 -0.362,15.857889 -0.8096,3.168217 -2.19313,6.34918 -4.7757,8.465052 -1.29356,1.737881 -3.20785,2.69239 -5.13237,3.553319 -3.80655,1.937445 -8.15518,1.280885 -12.26318,1.377965 z m 0.0106,-3.695951 c 3.94293,-0.0906 8.17134,0.599065 11.75492,-1.476946 1.94936,-0.895941 3.38984,-2.579746 4.75375,-4.155281 1.921,-2.89856 2.53277,-6.42805 2.24666,-9.854104 0.0209,-3.719509 0.0177,-7.440358 0.0197,-11.160549 -0.65199,-1.629016 -2.31489,-1.223498 -3.68971,-1.249248 -10.86832,0 -21.73664,0 -32.60496,0 -1.96005,1.826751 -0.61276,4.756346 -1.00745,7.101891 0.0811,3.273171 -0.19428,6.58969 0.18654,9.834881 0.47992,3.1768 2.18662,6.050208 4.68933,8.051435 2.49773,2.109213 5.91101,3.173834 9.19384,2.901239 1.48584,-0.05805 2.97101,0.03135 4.45742,0.0067 z m 0.51861,-9.406982 c -2.47764,0.517635 -2.85142,-2.769488 -3.50575,-4.443074 -0.84803,-2.142641 -0.83274,-5.379018 1.73293,-6.295487 2.19291,-0.957982 5.05858,0.70934 4.9674,3.196083 -0.32341,2.400408 -0.59524,6.60413 -3.19458,7.542478 z M 115.032,44.977282 c 3.30449,0.570091 1.00449,-4.168634 1.67373,-6.02594 -0.0764,-3.339231 0.91307,-6.909486 3.77586,-8.905816 2.32486,-2.016211 5.61046,-2.300125 8.47972,-1.560217 3.29644,1.257439 6.09796,4.246664 6.3242,7.879422 0.41781,2.861888 0.1229,5.758146 0.20723,8.636728 1.84691,-0.129654 4.44432,0.49413 3.60386,-2.25166 0.16683,-4.019544 0.42845,-8.312876 -1.65323,-11.932903 -1.77841,-2.69155 -4.32898,-4.997436 -7.48163,-5.905015 -4.10937,-1.359791 -8.90442,-0.369694 -12.15607,2.433397 -1.61214,1.508019 -3.17828,3.131193 -3.84637,5.294941 -1.52845,3.675469 -0.75827,7.74037 -0.96986,11.599345 0.004,1.133113 1.34782,0.622062 2.04256,0.737718 z m 11.12785,-0.06195 c 2.27459,-0.388332 6.04781,0.691201 7.34232,-0.657083 -0.33633,-3.528821 0.838,-7.412815 -0.91192,-10.646578 -1.78467,-3.095626 -6.01072,-4.716155 -9.3105,-3.11462 -2.96853,1.075381 -5.03616,4.336423 -4.61227,7.503065 0.0889,2.244935 -0.4472,4.578875 0.0822,6.771345 1.90894,0.47955 4.10321,0.02977 6.13031,0.156122 0.42661,-0.0041 0.85323,-0.0082 1.27984,-0.01225 z"
       id="path16"
       inkscape:linked-fill="path17"
       inkscape:original-d="m 125.96807,80.141235 c -4.39798,-0.06846 -9.17361,0.530488 -13.09317,-1.927386 -2.58264,-0.982835 -4.29435,-3.256229 -6.14689,-5.188513 -1.25579,-2.2833 -2.53694,-4.648839 -2.78028,-7.294734 -0.46153,-4.443865 -0.0601,-8.932681 -0.2137,-13.395343 -0.31582,-2.684119 0.56954,-5.550926 3.05685,-6.897172 2.2539,-0.138303 2.89599,-1.150582 2.5296,-3.391165 0.2097,-3.822991 -0.34894,-7.87161 1.48453,-11.39863 0.83601,-2.177373 2.23467,-4.030549 4.04379,-5.499336 1.53211,-1.887006 3.8954,-2.815392 6.0806,-3.684445 2.44859,-1.034177 5.11664,-0.622464 7.69228,-0.653105 2.75727,0.368164 5.36688,1.660713 7.62215,3.222693 1.83855,1.853979 4.00358,3.518629 4.88206,6.080094 1.63986,2.821439 1.71534,6.109809 1.67613,9.274239 0.51178,1.695427 -0.7892,5.220165 0.9827,5.574278 2.81173,0.342269 4.78246,3.188248 4.7166,5.9243 -0.19244,5.279446 0.0106,10.597047 -0.362,15.857889 -0.8096,3.168217 -2.19313,6.34918 -4.7757,8.465052 -1.29356,1.737881 -3.20785,2.69239 -5.13237,3.553319 -3.80655,1.937445 -8.15518,1.280885 -12.26318,1.377965 z m 0.0106,-3.695951 c 3.94293,-0.0906 8.17134,0.599065 11.75492,-1.476946 1.94936,-0.895941 3.38984,-2.579746 4.75375,-4.155281 1.921,-2.89856 2.53277,-6.42805 2.24666,-9.854104 0.0209,-3.719509 0.0177,-7.440358 0.0197,-11.160549 -0.65199,-1.629016 -2.31489,-1.223498 -3.68971,-1.249248 -10.86832,0 -21.73664,0 -32.60496,0 -1.96005,1.826751 -0.61276,4.756346 -1.00745,7.101891 0.0811,3.273171 -0.19428,6.58969 0.18654,9.834881 0.47992,3.1768 2.18662,6.050208 4.68933,8.051435 2.49773,2.109213 5.91101,3.173834 9.19384,2.901239 1.48584,-0.05805 2.97101,0.03135 4.45742,0.0067 z m 0.51861,-9.406982 c -2.47764,0.517635 -2.85142,-2.769488 -3.50575,-4.443074 -0.84803,-2.142641 -0.83274,-5.379018 1.73293,-6.295487 2.19291,-0.957982 5.05858,0.70934 4.9674,3.196083 -0.32341,2.400408 -0.59524,6.60413 -3.19458,7.542478 z M 115.032,44.977282 c 3.30449,0.570091 1.00449,-4.168634 1.67373,-6.02594 -0.0764,-3.339231 0.91307,-6.909486 3.77586,-8.905816 2.32486,-2.016211 5.61046,-2.300125 8.47972,-1.560217 3.29644,1.257439 6.09796,4.246664 6.3242,7.879422 0.41781,2.861888 0.1229,5.758146 0.20723,8.636728 1.84691,-0.129654 4.44432,0.49413 3.60386,-2.25166 0.16683,-4.019544 0.42845,-8.312876 -1.65323,-11.932903 -1.77841,-2.69155 -4.32898,-4.997436 -7.48163,-5.905015 -4.10937,-1.359791 -8.90442,-0.369694 -12.15607,2.433397 -1.61214,1.508019 -3.17828,3.131193 -3.84637,5.294941 -1.52845,3.675469 -0.75827,7.74037 -0.96986,11.599345 0.004,1.133113 1.34782,0.622062 2.04256,0.737718 z m 11.12785,-0.06195 c 2.27459,-0.388332 6.04781,0.691201 7.34232,-0.657083 -0.33633,-3.528821 0.838,-7.412815 -0.91192,-10.646578 -1.78467,-3.095626 -6.01072,-4.716155 -9.3105,-3.11462 -2.96853,1.075381 -5.03616,4.336423 -4.61227,7.503065 0.0889,2.244935 -0.4472,4.578875 0.0822,6.771345 1.90894,0.47955 4.10321,0.02977 6.13031,0.156122 0.42661,-0.0041 0.85323,-0.0082 1.27984,-0.01225 z"
       inkscape:path-effect="#path-effect16"
       transform="matrix(1.9536984,0,0,1.652765,-163.45933,-7.4085644)" /><path
       style="opacity:1;fill:#ff0000;stroke-width:1"
       d="m 205.75,189.70014 c -1.925,-0.25142 -3.74606,-0.5475 -4.0468,-0.65793 -0.30073,-0.11044 -0.81378,-1.51512 -1.14009,-3.12151 -1.02578,-5.04966 -1.21623,-11.62911 -0.5911,-20.4207 0.33242,-4.675 0.5884,-13.14772 0.56886,-18.82828 -0.0332,-9.64753 0.0486,-10.6185 1.24044,-14.73139 4.26526,-14.7185 15.90006,-25.89991 33.21869,-31.92419 7.10884,-2.472804 11.19911,-3.291192 18,-3.601471 12.44595,-0.567824 25.76265,3.113337 36.51485,10.093871 4.59527,2.98334 12.14797,10.51827 14.43488,14.40091 2.16681,3.67875 4.84485,11.50667 5.59033,16.34055 0.72101,4.67524 0.80093,12.85848 0.32228,33 l -0.37429,15.75 -2.61903,1.37242 c -4.32062,2.26408 -7.35272,2.61367 -20.61902,2.37732 -17.06383,-0.30402 -24.82252,-0.29236 -52.5,0.0789 -14.0663,0.18868 -25.99053,0.13396 -28,-0.1285 z"
       id="path10"
       transform="matrix(0.26458333,0,0,0.26458333,15.340157,16.54829)" /><path
       style="opacity:1;fill:#ff0000;stroke-width:1"
       d="m 160.88135,189.46734 c -0.75275,-0.40844 -1.47088,-1.24318 -1.59583,-1.85498 -0.49185,-2.40817 -0.67849,-38.53136 -0.23393,-45.2736 0.8413,-12.75909 2.93107,-20.86949 8.21572,-31.88533 3.33314,-6.94791 7.12392,-11.995697 14.05508,-18.71567 15.02045,-14.562802 28.06949,-22.00107 46.92761,-26.749887 10.62518,-2.675611 17.64974,-3.397238 30.18872,-3.101258 11.42907,0.269781 14.90635,0.73485 25.13209,3.361301 18.00068,4.623418 32.70438,13.123127 46.18953,26.700601 7.32796,7.378133 10.46965,11.520993 13.68916,18.051483 6.80505,13.80349 9.2419,29.99259 8.17632,54.31923 -0.42958,9.80713 -0.3968,12.3426 0.19252,14.89353 1.24249,5.37824 -0.49427,8.51066 -5.56834,10.04305 -1.1,0.3322 -6.31028,0.71804 -11.5784,0.8574 l -9.5784,0.2534 -0.22974,-23.1833 c -0.20085,-20.2686 -0.36161,-24.04559 -1.27869,-30.04181 -2.03071,-13.2776 -5.69503,-20.87064 -14.46323,-29.97006 -10.32187,-10.711774 -24.54,-18.579073 -37.91546,-20.979705 -7.91839,-1.421197 -22.63955,-1.559876 -29.70608,-0.279843 -11.44774,2.073647 -18.99421,5.156533 -28.9281,11.817704 -17.06139,11.440524 -25.08496,26.185674 -26.67445,49.020404 -0.79607,11.43642 -0.72001,17.70031 0.30961,25.5 1.08519,8.22057 0.85845,12.00451 -0.87485,14.59977 -2.03981,3.0542 -3.45935,3.40101 -13.83221,3.37944 -7.20541,-0.015 -9.55252,-0.18339 -10.61865,-0.76187 z"
       id="path11"
       transform="matrix(0.26458333,0,0,0.26458333,15.340157,16.54829)" /><path
       style="opacity:1;fill:#ff0000;stroke-width:1"
       d="m 200.75,386.19565 c -24.22858,-3.12414 -45.38269,-13.35501 -61.03045,-29.51647 -2.49174,-2.57355 -5.5483,-6.02918 -6.79236,-7.67918 -7.46069,-9.8952 -12.33927,-21.35814 -13.93826,-32.75 -1.03248,-7.35582 -1.38721,-23.58585 -0.99992,-45.75 0.298,-17.05475 0.23478,-24.49659 -0.26122,-30.75 -1.05125,-13.2537 0.11083,-19.05452 4.85768,-24.24833 l 2.51487,-2.75167 127.32483,0.0104 c 100.93806,0.008 127.95216,0.14195 130.35187,0.64508 3.88313,0.81415 7.18119,2.75897 8.91052,5.2544 l 1.36738,1.97312 -0.20256,46.18349 c -0.19914,45.40313 -0.22121,46.26798 -1.30621,51.18349 -3.57174,16.18159 -10.6577,29.51674 -20.56662,38.70458 -13.18033,12.22117 -18.66355,16.01872 -30.76199,21.30504 -7.89379,3.44913 -15.85138,5.7955 -24.74823,7.29726 -6.65676,1.12364 -7.20587,1.13516 -58.96933,1.23714 -28.85605,0.0568 -53.81706,-0.0991 -55.75,-0.34837 z m 61.33653,-59.32786 c 6.3743,-3.13806 11.70153,-10.28687 14.85146,-19.92973 2.47417,-7.57415 5.33182,-23.92918 4.96125,-28.39442 -0.90634,-10.9211 -14.5249,-20.03445 -28.60672,-19.14323 -7.30701,0.46245 -13.21288,2.79903 -17.62728,6.97398 -5.25524,4.97019 -6.93394,9.45937 -6.87141,18.37561 0.0488,6.96238 0.25,7.72686 5.9206,22.5 3.5818,9.33137 5.48175,13.05393 8.21305,16.09178 3.54456,3.94241 7.03157,5.42875 12.34194,5.26078 2.81608,-0.0891 4.17845,-0.43577 6.81711,-1.73477 z"
       id="path12"
       transform="matrix(0.26458333,0,0,0.26458333,15.340157,16.54829)" /><path
       style="opacity:1;fill:#00ff00;stroke-width:1"
       d="m 242.5,409.71229 c -23.2375,-0.20567 -43.15,-0.51943 -44.25,-0.69725 -1.1,-0.17782 -4.475,-0.66138 -7.5,-1.07458 -10.50038,-1.4343 -20.53965,-4.3028 -29.5,-8.42899 -2.2,-1.01308 -5.35294,-2.35621 -7.00654,-2.98473 -4.42468,-1.68177 -8.43331,-3.80428 -13.49346,-7.14459 -5.56516,-3.67368 -9.19118,-6.64407 -19.9029,-16.30419 -7.99743,-7.21229 -8.59187,-7.87954 -12.31917,-13.82796 C 98.095504,342.60087 93.954027,333.01425 92.305597,321.69885 90.826735,311.54743 90.54165,302.5314 90.449551,263 90.34524,218.22716 90.231738,219.88578 93.935878,212.05379 98.709324,201.96087 108.39854,193.81533 116.5,193.08458 c 10.32121,-0.93098 15.64942,-5.60998 15.64832,-13.74169 -2.5e-4,-1.83859 -0.0286,-9.53039 -0.063,-17.09289 -0.14966,-32.87547 1.83593,-44.88126 10.00168,-60.47469 5.79086,-11.058305 9.29862,-15.975022 16.63078,-23.310798 3.59274,-3.594518 8.21976,-7.817304 10.28226,-9.383968 2.0625,-1.566665 5.57981,-4.363195 7.81624,-6.214512 7.51507,-6.220977 15.703,-10.382387 31.57989,-16.050079 11.26434,-4.021116 15.94198,-5.347686 22.19282,-6.293837 11.89265,-1.800117 43.31312,-1.373462 53.16105,0.721867 13.94978,2.968075 29.88903,9.103501 42.46373,16.345377 4.79675,2.762486 20.28359,15.312452 26.59188,21.549078 7.03058,6.950706 8.72198,9.439519 17.23578,25.361562 2.3064,4.3133 5.07907,12.20292 6.15479,17.51343 1.36124,6.72001 1.82527,11.48619 2.384,24.48657 0.63263,14.71992 0.66688,17.26265 0.38388,28.5 -0.19976,7.93221 -0.14118,8.65776 0.87693,10.86167 1.20046,2.59864 3.34284,4.21907 6.15901,4.65848 17.12057,2.67134 29.6194,13.30683 33.50848,28.513 0.96434,3.77052 0.97813,4.77374 0.51099,37.17098 -0.56296,39.04238 -0.8612,50.9139 -1.55245,61.79587 -0.46725,7.35578 -0.67654,8.50202 -2.59889,14.23409 -2.58578,7.71026 -7.9102,18.72065 -12.09827,25.01803 -4.13503,6.21765 -9.89361,12.75934 -14.88598,16.91037 -2.20769,1.83563 -5.95346,5.09886 -8.32393,7.25162 -8.37722,7.60783 -16.15843,12.06374 -32.30995,18.50229 -11.08502,4.41888 -16.08643,5.93205 -25,7.56377 -13.63804,2.49658 -22.66753,2.74618 -80.75,2.23212 z m 69.25,-23.38694 c 7.29852,-1.14394 14.65672,-2.75483 18.94258,-4.14699 5.523,-1.794 16.06671,-6.42528 20.05742,-8.81012 9.35083,-5.58803 23.65957,-18.3084 28.53595,-25.36824 6.10289,-8.83555 10.51282,-19.4062 12.73053,-30.51522 1.06867,-5.35324 1.09975,-6.58385 1.29568,-51.31244 l 0.20076,-45.82767 -1.64924,-2.17233 c -2.07552,-2.73383 -5.70004,-4.71198 -9.87464,-5.38928 -2.20268,-0.35736 -43.78582,-0.52671 -129.96451,-0.52928 l -126.72547,-0.004 -2.82996,2.91008 c -4.45576,4.58189 -5.18126,6.96038 -5.13663,16.83992 0.0199,4.4 0.0481,22.43747 0.0627,40.08327 0.0294,35.41319 0.39759,42.68232 2.60455,51.41673 3.13592,12.41089 9.95994,24.1643 19.75024,34.01696 15.58808,15.68739 36.29263,25.68201 60,28.96356 4.05504,0.5613 14.78031,0.66387 56.75,0.54275 34.36654,-0.0992 52.9257,-0.33362 55.25,-0.69792 z M 183.30909,189.46911 c 4.16835,-3.11583 4.73965,-6.48037 3.19004,-18.78707 -1.10819,-8.80114 -1.12955,-9.60723 -0.51483,-19.43204 0.39159,-6.25861 1.08237,-12.39172 1.77396,-15.75 3.44713,-16.73909 11.35672,-28.40577 25.65055,-37.83468 9.41269,-6.209065 17.09191,-9.358093 27.34119,-11.211833 6.9651,-1.259745 21.90464,-1.267928 29.47354,-0.01614 15.48627,2.561202 32.17276,12.492647 42.33062,25.194283 5.98779,7.48729 8.82486,14.28614 10.5174,25.2043 1.0004,6.45333 1.1302,9.48308 1.30836,30.53908 l 0.19778,23.375 h 7.17497 c 7.7636,0 13.76961,-0.64251 16.44143,-1.75886 0.92742,-0.3875 2.29803,-1.43164 3.04579,-2.32032 1.30131,-1.54651 1.34505,-1.77762 1.02068,-5.39329 -0.18639,-2.07765 -0.26502,-7.82754 -0.17473,-12.77753 0.49188,-26.96698 -0.51002,-37.96298 -4.54326,-49.86291 C 343.813,107.6331 339.7535,101.43065 329.78135,91.5 314.27576,76.058942 298.46461,67.598797 277,63.258043 262.58383,60.342681 246.25166,60.541494 231.01976,63.817764 220.14985,66.155802 206.02843,71.989061 197.5,77.664064 189.27658,83.136112 177.60337,93.85343 172.62729,100.5 c -4.48466,5.99018 -9.09406,15.83476 -11.36059,24.2635 -2.49107,9.26376 -2.83959,14.18487 -2.79132,39.4128 0.0292,15.27188 0.22494,23.51374 0.57385,24.16569 1.1059,2.06638 3.09439,2.40733 13.29075,2.27885 8.80024,-0.11089 9.70355,-0.20573 10.96911,-1.15173 z m 83.44091,0.55 c 4.95,0.0105 14.175,0.0965 20.5,0.19115 12.49976,0.18701 16.40385,-0.31103 20.5,-2.61513 l 2,-1.12501 0.40857,-14.98506 c 0.63081,-23.13626 0.5657,-29.91083 -0.3369,-35.05272 -0.95616,-5.447 -2.76845,-10.74096 -5.19739,-15.18234 -2.37595,-4.34446 -10.5852,-12.53082 -15.77385,-15.72987 -13.8121,-8.5158 -31.74979,-11.7373 -46.14206,-8.286835 -12.63087,3.028185 -22.35679,8.089125 -29.74637,15.478705 -6.32507,6.32507 -10.0256,12.64949 -12.02757,20.55581 -0.92774,3.66389 -1.03231,5.10502 -0.77871,10.73219 0.17174,3.8109 -0.0221,11.4645 -0.4684,18.5 -1.02278,16.12106 -0.29717,25.78838 2.01146,26.79873 2.51842,1.10215 9.52225,1.32579 32.05122,1.0234 13.2,-0.17717 28.05,-0.31353 33,-0.30302 z"
       id="path13"
       transform="matrix(0.26458333,0,0,0.26458333,15.340157,16.54829)" /><path
       style="opacity:1;fill:#00ff00;stroke-width:1"
       d="m 249.16211,327.43123 c -4.67209,-1.65551 -8.91534,-7.12051 -12.17554,-15.68123 -0.89019,-2.3375 -2.69856,-6.97634 -4.01859,-10.30854 -1.32004,-3.33219 -2.75285,-7.76646 -3.18402,-9.85392 -3.73583,-18.08631 5.85148,-30.76576 23.96921,-31.69984 6.0488,-0.31185 9.66023,0.46745 15.5572,3.35705 7.41031,3.63116 12.18963,10.19498 12.18963,16.741 0,3.70157 -2.65191,19.02384 -4.24283,24.51425 -2.14029,7.38641 -5.27237,13.26302 -9.1997,17.26109 -4.55574,4.63779 -8.40615,6.50377 -13.30747,6.44904 -1.925,-0.0215 -4.43955,-0.37199 -5.58789,-0.7789 z"
       id="path14"
       transform="matrix(0.26458333,0,0,0.26458333,15.340157,16.54829)" /></g></svg>
