<?xml version="1.0" encoding="UTF-8" standalone="no"?>
<!-- Created with Inkscape (http://www.inkscape.org/) -->

<svg
   width="512"
   height="512"
   viewBox="0 0 135.467 135.467"
   version="1.1"
   id="svg1"
   xml:space="preserve"
   inkscape:version="1.4 (86a8ad7, 2024-10-11)"
   sodipodi:docname="unlocked.svg"
   xmlns:inkscape="http://www.inkscape.org/namespaces/inkscape"
   xmlns:sodipodi="http://sodipodi.sourceforge.net/DTD/sodipodi-0.dtd"
   xmlns="http://www.w3.org/2000/svg"
   xmlns:svg="http://www.w3.org/2000/svg"><sodipodi:namedview
     id="namedview1"
     pagecolor="#ffffff"
     bordercolor="#666666"
     borderopacity="1.0"
     inkscape:showpageshadow="false"
     inkscape:pageopacity="0.0"
     inkscape:pagecheckerboard="false"
     inkscape:deskcolor="#d1d1d1"
     inkscape:document-units="px"
     showgrid="false"
     inkscape:zoom="1"
     inkscape:cx="305"
     inkscape:cy="255.5"
     inkscape:window-width="1920"
     inkscape:window-height="1017"
     inkscape:window-x="-8"
     inkscape:window-y="-8"
     inkscape:window-maximized="1"
     inkscape:current-layer="layer1"
     showborder="false"
     borderlayer="false"
     inkscape:antialias-rendering="false" /><defs
     id="defs1" /><g
     inkscape:label="Layer 1"
     inkscape:groupmode="layer"
     id="layer1"
     transform="translate(-15.340157,-16.54829)"><path
       style="display:inline;fill:#070707;stroke-width:1.49392"
       d="m 82.387485,152.07403 c -18.300003,0.206 -37.214388,-2.9811 -53.20153,-12.28291 C 21.256054,134.8831 14.592951,126.49323 15.345831,116.69401 15.648688,93.43077 15.018114,70.122035 15.653508,46.88 c 2.55052,-13.116742 15.735637,-19.993263 27.25177,-24.010309 19.72251,-6.424167 40.915996,-6.90112 61.355442,-4.451771 14.78895,2.52186 30.71268,6.450435 41.20681,17.947648 4.96366,5.533656 5.83205,13.149496 5.26259,20.254766 -0.12908,21.790035 0.30015,43.611746 -0.24191,65.381826 -2.56183,12.5657 -14.81972,19.60404 -25.92777,23.68553 -13.47845,4.68192 -27.910827,6.85716 -42.172955,6.38634 z m 0.08742,-17.02939 c 15.152903,0.3659 30.966285,-1.84129 44.402805,-9.22743 4.70086,-2.117 7.95803,-6.47634 6.89454,-11.7049 -0.531,-1.80167 1.20439,-7.34806 -1.14954,-6.1377 -17.18937,8.58536 -36.88104,10.885 -55.879776,10.26404 -14.924441,-0.89157 -30.12261,-3.4726 -43.481118,-10.40957 -2.277496,5.02644 -1.818363,15.09959 5.280618,17.57908 13.21177,7.49256 28.920441,9.92177 43.932471,9.63648 z m 2.762167,-33.81383 C 100.14239,101.07658 115.67061,98.692113 128.58056,90.837637 134.77203,88.332962 135.4629,77.58141 132.50481,73.928471 115.82807,82.586662 96.477537,84.715695 77.901076,84.35423 62.265575,83.540801 46.319956,80.850463 32.361353,73.426776 c 0.153033,6.29525 -1.714198,14.495161 5.486941,17.622119 14.084937,8.314942 31.284593,10.556785 47.388778,10.181915 z M 82.121659,67.337607 c 16.219688,0.05609 33.288391,-2.141186 47.265051,-10.944591 6.98125,-3.462061 3.80458,-10.902559 -2.07743,-13.22062 -10.98101,-6.48811 -24.01958,-8.546521 -36.565503,-9.487968 -17.407315,-0.674832 -35.695786,0.703328 -51.31167,9.096327 -6.758446,2.430513 -9.598355,10.432348 -2.138317,14.137327 13.498375,7.815623 29.412164,10.397184 44.827869,10.419525 z"
       id="path15" /></g></svg>
